<?xml version="1.0" encoding="utf-8"?>
<svg xmlns="http://www.w3.org/2000/svg" width="24" height="24" viewBox="0 0 24 24" fill="none">
<path d="M6.41269 14.0708C6.79769 13.6858 7.42191 13.6858 7.80692 14.0708L9.86322 16.1271C10.2482 16.5121 10.2482 17.1364 9.86322 17.5214L6.08165 21.3029C5.69665 21.6879 5.07243 21.6879 4.68743 21.3029L2.63112 19.2466C2.24612 18.8616 2.24612 18.2374 2.63112 17.8524L6.41269 14.0708Z" fill="url(#paint0_linear_3332_33855)"/>
<path d="M16.5308 3.95264C16.7028 3.78065 16.9412 3.68915 17.1935 3.69827L19.621 3.3853C20.1465 3.4043 20.5879 3.84569 20.6069 4.37117L20.2357 6.74044C20.2448 6.99279 20.1533 7.23118 19.9813 7.40317L12.0715 15.313C11.7133 15.6712 11.1109 15.6494 10.7259 15.2644L8.66957 13.2081C8.28456 12.8231 8.26279 12.2206 8.62093 11.8625L16.5308 3.95264Z" fill="url(#paint1_linear_3332_33855)"/>
<path d="M14.1764 16.9898C14.5614 17.3748 14.5614 17.999 14.1764 18.384L12.9828 19.5777C12.5977 19.9627 11.9735 19.9627 11.5885 19.5777L4.35643 12.3456C3.97143 11.9606 3.97143 11.3364 4.35643 10.9514L5.5501 9.75768C5.93511 9.37268 6.55932 9.37268 6.94433 9.75768L14.1764 16.9898Z" fill="url(#paint2_linear_3332_33855)"/>
<defs>
<linearGradient id="paint0_linear_3332_33855" x1="8.83507" y1="15.099" x2="3.65928" y2="20.2748" gradientUnits="userSpaceOnUse">
<stop stop-color="#EF5600"/>
<stop offset="1" stop-color="#FFB763"/>
</linearGradient>
<linearGradient id="paint1_linear_3332_33855" x1="20.1296" y1="3.80439" x2="9.69772" y2="14.2362" gradientUnits="userSpaceOnUse">
<stop stop-color="white" stop-opacity="0.99"/>
<stop offset="1" stop-color="#E8F2F7"/>
</linearGradient>
<linearGradient id="paint2_linear_3332_33855" x1="10.5604" y1="13.3737" x2="7.97248" y2="15.9616" gradientUnits="userSpaceOnUse">
<stop stop-color="#FFFB93"/>
<stop offset="1" stop-color="#F1CF78"/>
</linearGradient>
</defs>
</svg>