<?xml version="1.0" encoding="utf-8"?>
<svg xmlns="http://www.w3.org/2000/svg" width="24" height="24" viewBox="0 0 24 24" fill="none">
<path d="M12.0001 22.0005C17.523 22.0005 22.0003 17.5232 22.0003 12.0002C22.0003 6.47726 17.523 2 12.0001 2C6.47708 2 1.99982 6.47726 1.99982 12.0002C1.99982 17.5232 6.47708 22.0005 12.0001 22.0005Z" fill="url(#paint0_linear_3332_34167)"/>
<path fill-rule="evenodd" clip-rule="evenodd" d="M15.69 11.5565C16.7464 15.8402 16.3561 19.2048 15.8769 21.2066C15.4858 21.3712 15.0841 21.5192 14.6645 21.6347C15.1596 19.9206 15.8016 16.4305 14.6731 11.829L10.6113 12.9174C11.6975 16.9721 9.68887 19.8044 7.75499 21.0494C7.38256 20.8739 7.02414 20.6706 6.67574 20.4513C8.42141 19.6479 10.6396 17.0913 9.59467 13.1898L2.50221 15.0902C2.48451 15.0354 2.46603 14.9811 2.44755 14.9269C2.40961 14.8154 2.37169 14.7041 2.34069 14.5884C2.30962 14.4725 2.28671 14.3567 2.26383 14.241L2.26382 14.241C2.25275 14.185 2.24167 14.129 2.22968 14.0731L9.26176 12.1889C7.84809 8.67746 4.5927 7.55402 2.875 7.91581C3.04596 7.53388 3.24528 7.16631 3.46261 6.80873C5.64006 6.80723 8.86527 8.2557 10.2846 11.9148L14.3993 10.8123C13.0719 6.29374 10.7658 3.56973 9.48192 2.32548C9.90258 2.21583 10.3234 2.14292 10.7432 2.08918C12.1569 3.58801 14.1862 6.32988 15.4163 10.5398L18.4866 9.71708C18.0852 7.80052 18.384 6.1777 19.0138 4.88485C19.285 5.15139 19.5439 5.43142 19.7841 5.72923C19.379 6.75399 19.2161 8.00259 19.5057 9.444L21.4977 8.91025C21.5154 8.96506 21.5339 9.01933 21.5523 9.07357C21.5903 9.18499 21.6282 9.29631 21.6592 9.41203C21.6903 9.52795 21.7132 9.64374 21.7361 9.7594L21.7361 9.75945C21.7471 9.81544 21.7582 9.87141 21.7702 9.92734L19.7771 10.4614C20.2438 11.8671 20.994 12.9276 21.8478 13.6923C21.7819 14.0717 21.6939 14.4447 21.5862 14.8112C20.4081 13.9091 19.3647 12.6027 18.7583 10.7344L15.69 11.5565Z" fill="url(#paint1_linear_3332_34167)"/>
<defs>
<linearGradient id="paint0_linear_3332_34167" x1="12.0001" y1="2" x2="12.0001" y2="22.0005" gradientUnits="userSpaceOnUse">
<stop stop-color="#FFBE71"/>
<stop offset="1" stop-color="#F13A00"/>
</linearGradient>
<linearGradient id="paint1_linear_3332_34167" x1="9.41258" y1="2.34406" x2="14.5871" y2="21.6554" gradientUnits="userSpaceOnUse">
<stop stop-color="#42190C"/>
<stop offset="1" stop-color="#CD1717"/>
</linearGradient>
</defs>
</svg>