<?xml version="1.0" encoding="utf-8"?>
<svg xmlns="http://www.w3.org/2000/svg" width="24" height="24" viewBox="0 0 24 24" fill="none">
<path d="M5.16806 18.7994C4.6663 18.7994 4.1943 18.6902 3.76633 18.469C2.72043 17.9303 2.09925 16.8013 2.0161 15.2928C1.88322 12.8648 2.57166 10.4928 4.12298 8.04397C5.31765 6.15629 6.68636 5.63317 8.85315 6.24067C9.86807 6.52582 10.9506 6.80018 11.988 6.76698C12.9165 6.75059 13.9208 6.58341 15.1461 6.24067C17.3128 5.63237 18.6824 6.15709 19.877 8.04437C21.4284 10.494 22.1168 12.8648 21.9839 15.2932C21.9004 16.8025 21.2788 17.9303 20.2337 18.4694C19.1487 19.0301 17.7763 18.8746 16.3705 18.0299C15.3287 17.4052 14.3419 16.7477 13.5124 16.1862C12.623 15.5839 11.3786 15.5839 10.488 16.1862C9.65938 16.7477 8.67136 17.4056 7.62995 18.0299C6.77766 18.541 5.93882 18.7994 5.16846 18.7994H5.16806Z" fill="url(#paint0_linear_3332_36306)"/>
<path fill-rule="evenodd" clip-rule="evenodd" d="M6.64001 13.589C6.64001 14.1087 7.0698 14.5309 7.59995 14.5309C8.12964 14.5309 8.55988 14.1092 8.55988 13.589V13.1179H9.04006C9.56976 13.1179 9.99999 12.6957 9.99999 12.176C9.99999 11.6562 9.57021 11.2341 9.04006 11.2341H8.55988V10.7629C8.55988 10.2432 8.12964 9.82104 7.59995 9.82104C7.07025 9.82104 6.64001 10.2427 6.64001 10.7629V11.2341H6.15982C5.63013 11.2341 5.19989 11.6562 5.19989 12.176C5.19989 12.6957 5.62968 13.1179 6.15982 13.1179H6.64001V13.589Z" fill="url(#paint1_linear_3332_36306)"/>
<path d="M16.8002 14.0001C17.9048 14.0001 18.8003 13.1046 18.8003 12C18.8003 10.8954 17.9048 10 16.8002 10C15.6956 10 14.8002 10.8954 14.8002 12C14.8002 13.1046 15.6956 14.0001 16.8002 14.0001Z" fill="url(#paint2_linear_3332_36306)"/>
<defs>
<linearGradient id="paint0_linear_3332_36306" x1="12" y1="6" x2="12" y2="18.8003" gradientUnits="userSpaceOnUse">
<stop stop-color="#ED7DFF"/>
<stop offset="1" stop-color="#9D00FD"/>
</linearGradient>
<linearGradient id="paint1_linear_3332_36306" x1="7.59994" y1="9.82104" x2="7.59994" y2="14.5309" gradientUnits="userSpaceOnUse">
<stop stop-color="white"/>
<stop offset="1" stop-color="#D3D0F1"/>
</linearGradient>
<linearGradient id="paint2_linear_3332_36306" x1="16.8002" y1="10" x2="16.8002" y2="14.0001" gradientUnits="userSpaceOnUse">
<stop stop-color="white"/>
<stop offset="1" stop-color="#D3D0F1"/>
</linearGradient>
</defs>
</svg>