<?xml version="1.0" encoding="utf-8"?>
<svg xmlns="http://www.w3.org/2000/svg" width="24" height="24" viewBox="0 0 24 24" fill="none">
<path d="M12 2C6.50391 2 2 6.50391 2 12C2 17.4961 6.50391 22 12 22C17.4961 22 22 17.4961 22 12C22 6.50391 17.4961 2 12 2ZM10.2422 18.6328C10.2422 18.8203 10.1484 18.9961 9.99609 19.1133C9.83711 19.2191 9.65469 19.2492 9.45703 19.1836C7.3125 18.4219 5.57812 16.6875 4.81641 14.543C4.75781 14.3555 4.78125 14.1562 4.88672 14.0039C5.00391 13.8516 5.17969 13.7578 5.36719 13.7578H7.3125C8.92969 13.7578 10.2422 15.0703 10.2422 16.6875V18.6328ZM5.36719 10.2422C5.17969 10.2422 5.00391 10.1484 4.88672 9.99609C4.78125 9.84375 4.75781 9.64453 4.81641 9.45703C5.89453 6.42188 8.77734 4.38281 12 4.38281C15.2227 4.38281 18.1055 6.42188 19.1836 9.45703C19.2422 9.64453 19.2188 9.84375 19.1133 9.99609C18.9961 10.1484 18.8203 10.2422 18.6328 10.2422H5.36719ZM19.1836 14.543C18.4219 16.6875 16.6875 18.4219 14.543 19.1836C14.3457 19.2492 14.1629 19.2195 14.0039 19.1133C13.8516 18.9961 13.7578 18.8203 13.7578 18.6328V16.6875C13.7578 15.0703 15.0703 13.7578 16.6875 13.7578H18.6328C18.8203 13.7578 18.9961 13.8516 19.1133 14.0039C19.2188 14.1562 19.2422 14.3555 19.1836 14.543Z" fill="url(#paint0_linear_3332_36368)"/>
<circle cx="12" cy="12" r="4" fill="url(#paint1_linear_3332_36368)"/>
<defs>
<linearGradient id="paint0_linear_3332_36368" x1="12" y1="22" x2="12" y2="2" gradientUnits="userSpaceOnUse">
<stop stop-color="#006298"/>
<stop offset="1" stop-color="#81FFE8"/>
</linearGradient>
<linearGradient id="paint1_linear_3332_36368" x1="12" y1="8" x2="12" y2="16" gradientUnits="userSpaceOnUse">
<stop stop-color="white"/>
<stop offset="1" stop-color="#C2E6FF"/>
</linearGradient>
</defs>
</svg>