<?xml version="1.0" encoding="utf-8"?>
<svg xmlns="http://www.w3.org/2000/svg" width="24" height="24" viewBox="0 0 24 24" fill="none">
<path fill-rule="evenodd" clip-rule="evenodd" d="M19.3436 5.21235C19.7203 5.6197 19.6265 6.25395 19.1814 6.58514L13.0783 11.1259C12.5409 11.5258 12.5409 12.3306 13.0783 12.7305L19.2594 17.3293C19.701 17.6579 19.7976 18.2854 19.429 18.6941C17.5988 20.724 14.9484 22 12 22C6.47715 22 2 17.5228 2 12C2 6.47715 6.47715 2 12 2C14.9028 2 17.5168 3.23687 19.3436 5.21235Z" fill="url(#paint0_linear_3332_36573)"/>
<path d="M18 12C18 10.8954 18.8954 10 20 10C21.1046 10 22 10.8954 22 12C22 13.1046 21.1046 14 20 14C18.8954 14 18 13.1046 18 12Z" fill="url(#paint1_linear_3332_36573)"/>
<circle cx="9.5" cy="7.5" r="2.5" fill="url(#paint2_linear_3332_36573)"/>
<defs>
<linearGradient id="paint0_linear_3332_36573" x1="11.0289" y1="2" x2="11.0289" y2="22" gradientUnits="userSpaceOnUse">
<stop offset="0.078125" stop-color="#FFEFB7"/>
<stop offset="1" stop-color="#FFA800"/>
</linearGradient>
<linearGradient id="paint1_linear_3332_36573" x1="20.0455" y1="10" x2="20.0455" y2="14" gradientUnits="userSpaceOnUse">
<stop stop-color="#E00F4E"/>
<stop offset="1" stop-color="#FF3D77"/>
</linearGradient>
<linearGradient id="paint2_linear_3332_36573" x1="9.5" y1="4" x2="9.5" y2="10" gradientUnits="userSpaceOnUse">
<stop stop-color="#16171D"/>
<stop offset="1" stop-color="#282933"/>
</linearGradient>
</defs>
</svg>