<?xml version="1.0" encoding="utf-8"?>
<svg xmlns="http://www.w3.org/2000/svg" width="24" height="24" viewBox="0 0 24 24" fill="none">
<path d="M14.6238 10.387C14.59 10.3928 14.5546 10.3977 14.5183 10.4002C13.9526 10.4463 13.4588 10.0417 13.4123 9.49564C13.3743 9.05241 13.6428 8.65358 14.0464 8.49487C13.8015 8.30902 13.4866 8.20705 13.1523 8.23419C12.4491 8.29093 11.9214 8.89288 11.9797 9.57294L12.1907 12.0473C12.249 12.7257 12.8712 13.2364 13.5744 13.1797C14.2777 13.1229 14.8053 12.521 14.7471 11.8409L14.623 10.387H14.6238Z" fill="#6842FF"/>
<path d="M21.9922 11.0785C21.9466 9.84751 21.7314 8.74888 21.3515 7.81142C21.3447 7.44878 21.3084 6.47843 21.126 5.47519C20.9285 4.38889 20.6246 3.62742 20.2236 3.21132C20.113 3.09619 19.9728 3.02547 19.8183 3.00574C19.2561 2.93419 18.6938 3.54354 18.0978 4.18907C18.0302 4.26143 17.9652 4.33215 17.9028 4.39958C17.3228 4.17509 16.6769 4.0172 15.9796 3.92757C15.3608 3.84862 14.6803 3.82149 13.956 3.84698C12.3975 3.90125 11.1151 4.17509 10.0472 4.68082C9.44863 4.24169 8.41276 3.74994 7.69854 3.65866C7.26798 3.60357 6.95393 3.68909 6.76651 3.91441C6.14684 4.65779 6.42375 5.97928 6.66773 7.14534C6.75891 7.57953 6.84502 7.99069 6.87203 8.31551C6.5622 9.27517 6.42797 10.3878 6.47356 11.6221C6.57318 14.3169 7.45202 16.2979 9.08814 17.5116C9.93575 18.139 10.9471 18.5395 12.173 18.7328L11.6622 18.9984L11.6538 19.0025C11.5575 19.0559 11.4604 19.1069 11.3625 19.1596C11.1219 19.287 10.8737 19.4194 10.6078 19.5905L10.5276 19.6357L10.4845 19.6636C10.379 19.7442 10.3114 19.8602 10.2962 19.9844C10.281 20.1069 10.314 20.2278 10.3908 20.3256C10.4685 20.4251 10.5816 20.4893 10.7091 20.5057L10.7209 20.5074C10.8197 20.518 10.9176 20.5304 11.0155 20.5427C11.257 20.5723 11.506 20.6036 11.761 20.6159L12.0134 20.634C12.1046 20.6406 12.1983 20.6447 12.2912 20.6463L12.8137 20.6562H12.8205C13.5693 20.6422 14.2852 20.5723 14.9463 20.4473C15.6436 20.3207 16.3418 20.1044 17.0205 19.8043C17.7002 19.5025 18.3266 19.1258 18.8871 18.681C20.0159 17.7641 20.8753 16.5684 21.3734 15.2255C21.5448 14.7683 21.6782 14.2725 21.7702 13.7519C21.9526 12.9485 22.0268 12.0489 21.9914 11.0777L21.9922 11.0785ZM18.8086 14.7001C18.0809 15.3958 16.9572 15.7716 15.1641 15.9163C13.3726 16.0618 12.2 15.8719 11.3642 15.302C10.3798 14.631 9.82009 13.3547 9.65294 11.4009C9.48578 9.4421 9.8184 8.09842 10.6694 7.29336C11.3937 6.60424 12.5892 6.2013 14.3224 6.06069C14.6719 6.03273 15.002 6.01792 15.3127 6.01792C16.5402 6.01792 17.4688 6.23913 18.1349 6.68812C19.1117 7.34845 19.6672 8.61977 19.8344 10.5753C20.0015 12.5299 19.6655 13.8786 18.8086 14.6992V14.7001Z" fill="#6842FF"/>
<path d="M18.3553 9.94865C18.3055 9.96099 18.2557 9.96921 18.2033 9.97332C17.6377 10.0194 17.1438 9.61479 17.0974 9.06876C17.0611 8.64197 17.311 8.2563 17.6909 8.0869C17.4613 7.94299 17.1852 7.86816 16.8922 7.89201C16.189 7.94875 15.6614 8.5507 15.7196 9.23076L15.9307 11.7051C15.9889 12.3836 16.6111 12.8942 17.3144 12.8375C18.0176 12.7808 18.5453 12.1788 18.487 11.4987L18.3545 9.94865H18.3553Z" fill="#6842FF"/>
<path d="M5.61669 19.1489C5.92652 18.7657 6.17726 18.2945 6.2524 17.7987L6.16206 17.7008C6.08524 17.7025 6.01264 17.709 5.94341 17.7189C5.5061 17.7789 5.07891 17.9491 4.71589 18.1728C4.40775 18.3521 4.19247 18.6317 3.98732 18.9121C3.86491 19.0757 3.67242 19.2871 3.53481 19.4409C3.00295 20.0494 2.47784 20.6965 2 21.3454L2.09033 21.4432C2.26931 21.347 2.53018 21.1949 2.70662 21.0921C3.2005 20.801 3.72139 20.4778 4.19754 20.1587C4.36807 20.0428 4.60699 19.8767 4.78512 19.7764C5.09327 19.607 5.40141 19.4285 5.61753 19.1489H5.61669Z" fill="#6842FF"/>
<path d="M7.36174 18.9162C7.10509 18.931 6.85942 19.0107 6.68635 19.3076C6.60531 19.4441 6.52933 19.5962 6.43899 19.7204L6.30729 19.9071C5.99915 20.3561 5.7062 20.8289 5.43436 21.3322L5.48923 21.4629C5.73153 21.3724 5.96538 21.2623 6.1967 21.1471C6.35035 21.0707 6.55887 20.9588 6.70999 20.8684L6.87715 20.7664C7.04262 20.657 7.23595 20.6365 7.39213 20.4926C7.55338 20.3322 7.65638 20.1094 7.7484 19.8404C7.80918 19.6505 7.85984 19.4392 7.88094 19.1555L7.82607 19.0247C7.64793 18.9334 7.50019 18.9137 7.36089 18.9162H7.36174Z" fill="#6842FF"/>
<path d="M20.1932 10.5482C20.0167 8.48088 19.4089 7.12404 18.3409 6.40204C17.4368 5.79269 16.1113 5.56573 14.2937 5.71292C12.4761 5.86012 11.2072 6.29513 10.4195 7.04345C9.48579 7.92581 9.11939 9.36406 9.29584 11.4306C9.66983 15.8095 11.9239 16.5307 15.1945 16.265C18.465 16.0003 20.5663 14.9279 20.1923 10.5474L20.1932 10.5482ZM13.5753 13.1805C12.872 13.2372 12.249 12.7274 12.1916 12.0481L11.9805 9.57376C11.9222 8.89369 12.4499 8.29175 13.1531 8.23501C13.4875 8.20787 13.8023 8.30984 14.0472 8.49568C13.6436 8.65439 13.3752 9.05322 13.4132 9.49646C13.4596 10.0425 13.9535 10.4471 14.5191 10.401C14.5546 10.3977 14.5909 10.3936 14.6246 10.3879L14.7487 11.8417C14.807 12.5218 14.2793 13.1238 13.5761 13.1805H13.5753ZM17.3144 12.8392C16.6111 12.896 15.9881 12.3861 15.9307 11.7069L15.7196 9.23249C15.6613 8.55243 16.189 7.95048 16.8922 7.89374C17.1843 7.86989 17.4613 7.94472 17.6909 8.08863C17.311 8.25803 17.0611 8.64288 17.0974 9.07049C17.1438 9.61652 17.6377 10.0211 18.2033 9.97505C18.2557 9.97094 18.3055 9.9619 18.3553 9.95038L18.4878 11.5005C18.5461 12.1805 18.0184 12.7825 17.3152 12.8392H17.3144Z" fill="white"/>
</svg>