<?xml version="1.0" encoding="utf-8"?>
<svg xmlns="http://www.w3.org/2000/svg" width="24" height="24" viewBox="0 0 24 24" fill="none">
<path d="M12 22C9.32891 22 6.81758 20.9598 4.92891 19.0711C3.04023 17.1824 2 14.6711 2 12C2 9.32891 3.04023 6.81758 4.92891 4.92891C6.81758 3.04023 9.32891 2 12 2C14.6711 2 17.1824 3.04023 19.0711 4.92891C20.9598 6.81758 22 9.32891 22 12C22 14.6711 20.9598 17.1824 19.0711 19.0711C17.1824 20.9598 14.6711 22 12 22Z" fill="url(#paint0_linear_3332_36657)"/>
<path d="M10.5 17C8.76379 17 7.13143 16.3238 5.90379 15.0962C4.67615 13.8686 4 12.2362 4 10.5C4 8.76379 4.67615 7.13143 5.90379 5.90379C7.13143 4.67615 8.76379 4 10.5 4C12.2362 4 13.8686 4.67615 15.0962 5.90379C16.3238 7.13143 17 8.76379 17 10.5C17 12.2362 16.3238 13.8686 15.0962 15.0962C13.8686 16.3238 12.2362 17 10.5 17Z" fill="url(#paint1_linear_3332_36657)"/>
<path d="M10.5 14C9.13632 14 8 13.3205 8 11.972C8 11.1449 8.45474 10.5839 9.1743 10.3475V10.3278C8.70057 10.1507 8.17989 9.74702 8.17989 8.87065C8.17989 7.64 9.25026 7 10.5 7C11.7497 7 12.8106 7.64 12.8106 8.87065C12.8106 9.75689 12.2994 10.1605 11.8257 10.3278V10.3574C12.5358 10.5839 13 11.1449 13 11.972C13 13.3205 11.8637 14 10.5 14ZM10.5 10.8598C9.92235 10.8598 9.4866 11.214 9.4866 11.8244C9.4866 12.4348 9.94134 12.7891 10.5 12.7891C11.0587 12.7891 11.5134 12.4348 11.5134 11.8244C11.5134 11.214 11.0682 10.8598 10.5 10.8598ZM10.5 8.1621C9.98882 8.1621 9.638 8.45715 9.638 8.98911C9.638 9.52107 9.98829 9.80625 10.5 9.80625C11.0117 9.80625 11.362 9.51065 11.362 8.98911C11.362 8.46757 11.0022 8.1621 10.5 8.1621Z" fill="url(#paint2_linear_3332_36657)"/>
<defs>
<linearGradient id="paint0_linear_3332_36657" x1="4.5" y1="4.5" x2="19" y2="19.5" gradientUnits="userSpaceOnUse">
<stop stop-color="#746A7B"/>
<stop offset="1" stop-color="#4E4F5C"/>
</linearGradient>
<linearGradient id="paint1_linear_3332_36657" x1="10.5" y1="4" x2="10.5" y2="17" gradientUnits="userSpaceOnUse">
<stop stop-color="white"/>
<stop offset="1" stop-color="white"/>
</linearGradient>
<linearGradient id="paint2_linear_3332_36657" x1="10.5" y1="7" x2="10.5" y2="14" gradientUnits="userSpaceOnUse">
<stop stop-color="#4E4F59"/>
<stop offset="1" stop-color="#232126"/>
</linearGradient>
</defs>
</svg>