<?xml version="1.0" encoding="utf-8"?>
<svg xmlns="http://www.w3.org/2000/svg" width="24" height="24" viewBox="0 0 24 24" fill="none">
<path d="M16.131 22H12.7355C12.2336 22 11.9195 21.4555 12.1711 21.0207C12.3437 20.7223 12.4351 20.3844 12.4351 20.0434C12.4351 18.9125 11.4613 17.968 10.2546 18.0992C9.40807 18.1922 8.69125 18.868 8.55023 19.7066C8.47288 20.1672 8.55453 20.6215 8.78578 21.0207C9.03735 21.4559 8.72289 22 8.22131 22H3.95671C2.87776 22 2 21.1223 2 20.0434V15.7785C2 15.2762 2.54572 14.9629 2.97933 15.214C3.76217 15.6676 4.81533 15.4945 5.41457 14.8265C5.79037 14.4074 5.96303 13.864 5.90131 13.2976C5.80834 12.4511 5.13253 11.7343 4.29422 11.5937C3.83288 11.5156 3.37895 11.5976 2.97972 11.8289C2.5426 12.0812 2 11.7644 2 11.2648V7.86949C2 6.79058 2.87776 5.91284 3.95671 5.91284H7.28417C7.24003 5.69878 7.21737 5.48003 7.21737 5.2605C7.21737 4.33511 7.6127 3.44995 8.30217 2.83159C8.99165 2.21401 9.91903 1.91752 10.8441 2.01986C12.2816 2.17768 13.4531 3.28276 13.693 4.70737C13.7613 5.11597 13.7547 5.52183 13.6742 5.91284H16.1306C17.2095 5.91284 18.0873 6.79058 18.0873 7.86949V10.3261C18.4791 10.2461 18.8842 10.2394 19.2928 10.3078C20.7174 10.5468 21.8226 11.7183 21.9804 13.1558C22.0819 14.0824 21.7858 15.0086 21.1682 15.6976C20.4038 16.5508 19.2041 16.9469 18.0873 16.716V20.0434C18.0873 21.1223 17.2095 22 16.1306 22H16.131Z" fill="url(#paint0_linear_3332_36660)"/>
<defs>
<linearGradient id="paint0_linear_3332_36660" x1="12" y1="2" x2="12" y2="22" gradientUnits="userSpaceOnUse">
<stop stop-color="#FFCA62"/>
<stop offset="1" stop-color="#FF5C38"/>
</linearGradient>
</defs>
</svg>