<?xml version="1.0" encoding="utf-8"?>
<svg xmlns="http://www.w3.org/2000/svg" width="24" height="24" viewBox="0 0 24 24" fill="none">
<path d="M22 12C22 6.47695 17.523 2 12 2C6.47695 2 2 6.47695 2 12C2 17.523 6.47734 22 12 22C17.5227 22 22 17.5227 22 12Z" fill="url(#paint0_linear_3332_38776)"/>
<path fill-rule="evenodd" clip-rule="evenodd" d="M7.94728 2.85501L8.7133 3.41165L8.71291 3.41126C9.0258 3.6386 9.15666 4.04134 9.03713 4.40892L8.44924 6.21985C8.32971 6.58782 7.98713 6.83665 7.60041 6.83665H5.69728C5.31056 6.83665 4.9676 6.58743 4.84845 6.21985L4.55666 5.32142C5.49377 4.27806 6.64767 3.43196 7.94728 2.85501ZM14.0109 10.1242L14.7293 12.3347L14.7297 12.3344C14.8492 12.7023 14.7184 13.1051 14.4055 13.3324L12.525 14.6988C12.2121 14.9261 11.7887 14.9261 11.4758 14.6988L9.59532 13.3324C9.28243 13.1051 9.15157 12.7023 9.2711 12.3347L9.98907 10.1242C10.1086 9.75662 10.4512 9.5074 10.8379 9.5074H13.1621C13.5488 9.5074 13.8914 9.75662 14.0109 10.1242ZM12.525 18.7629L14.0644 19.882H14.0648C14.3773 20.1093 14.5082 20.5121 14.389 20.8797L14.0964 21.7804C13.4207 21.9242 12.7203 22 12.0003 22C11.2804 22 10.5792 21.9242 9.90346 21.7804L9.61128 20.8797C9.49175 20.5117 9.623 20.1093 9.9355 19.882L11.4757 18.7629C11.7882 18.5355 12.2121 18.5355 12.525 18.7629ZM5.40581 13.5906L3.86558 12.4718C3.55269 12.2445 3.12925 12.2445 2.81636 12.4718L2.05151 13.0273C2.19839 14.4703 2.65269 15.821 3.34644 17.0156H4.29292C4.67925 17.0156 5.02222 16.7667 5.14175 16.3988L5.73003 14.5882C5.84956 14.2206 5.7187 13.8175 5.40581 13.5902V13.5906ZM19.4433 5.3222C18.5062 4.27806 17.3523 3.43236 16.0527 2.8554L15.2867 3.41166C14.9738 3.639 14.8429 4.04173 14.9625 4.4097L15.5507 6.22064C15.6703 6.58822 16.0128 6.83744 16.3996 6.83744H18.3031C18.6898 6.83744 19.0328 6.58822 19.1519 6.22064L19.4433 5.32298V5.3222ZM21.1828 12.4719L21.9476 13.0273L21.9473 13.0277C21.8004 14.4707 21.3461 15.8215 20.6523 17.016H19.7062C19.3195 17.016 18.9769 16.7672 18.8574 16.3992L18.2695 14.5887C18.15 14.2211 18.2808 13.8184 18.5937 13.591L20.1336 12.4719C20.4465 12.2445 20.8699 12.2445 21.1828 12.4719Z" fill="url(#paint1_linear_3332_38776)"/>
<defs>
<linearGradient id="paint0_linear_3332_38776" x1="12" y1="22" x2="12" y2="2" gradientUnits="userSpaceOnUse">
<stop stop-color="#CDCDCD"/>
<stop offset="1" stop-color="white"/>
</linearGradient>
<linearGradient id="paint1_linear_3332_38776" x1="11.9996" y1="2.85501" x2="11.9996" y2="22" gradientUnits="userSpaceOnUse">
<stop stop-color="#2F7FA1"/>
<stop offset="1" stop-color="#511E4F" stop-opacity="0.66"/>
</linearGradient>
</defs>
</svg>