<?xml version="1.0" encoding="utf-8"?>
<svg xmlns="http://www.w3.org/2000/svg" width="24" height="24" viewBox="0 0 24 24" fill="none">
<path d="M19.5312 2.00039H17.6484C16.932 2.00039 16.223 2.04805 15.5234 2.14297C15.5234 2.28398 15.409 2.39844 15.268 2.39844H14.1227C13.248 2.6 12.3914 2.87734 11.5574 3.23008C8.10391 4.69102 4.9332 7.53047 3.23008 11.5574C2.87734 12.3914 2.6 13.2477 2.39844 14.1219V15.2676C2.39844 15.409 2.28398 15.5234 2.14258 15.5234C2.04766 16.223 2 16.9324 2 17.6488V19.5316C2 20.893 3.10742 22.0004 4.46875 22.0004H6.35156C7.06836 22.0004 7.77773 21.9527 8.47773 21.8578C8.47773 21.7168 8.59219 21.602 8.73359 21.602H9.87812C10.7523 21.4004 11.6086 21.123 12.4426 20.7703C15.8957 19.3098 19.0664 16.4703 20.7699 12.443C21.1227 11.609 21.4004 10.7523 21.6016 9.87773V8.73242C21.6016 8.59101 21.716 8.47695 21.8574 8.47695C21.952 7.77734 22 7.06797 22 6.35156V4.46875C22 3.10742 20.8926 2 19.5312 2V2.00039Z" fill="url(#paint0_linear_3332_38787)"/>
<path d="M8.34923 14.8244L7.82228 15.3513C7.59337 15.5802 7.59337 15.9509 7.82228 16.1798C8.05118 16.4087 8.42228 16.4087 8.65079 16.1798L9.17775 15.6529L9.7047 16.1798C9.93361 16.4087 10.3047 16.4087 10.5332 16.1798C10.7621 15.9509 10.7621 15.5802 10.5332 15.3513L10.0063 14.8244L11.0606 13.7701L11.5875 14.297C11.8164 14.5259 12.1871 14.5259 12.416 14.297C12.6449 14.0681 12.6449 13.6974 12.416 13.4685L11.8891 12.9415L12.9434 11.8872L13.4703 12.4142C13.6992 12.6431 14.0699 12.6431 14.2988 12.4142C14.5277 12.1853 14.5277 11.8146 14.2988 11.5857L13.7719 11.0587L14.8262 10.0044L15.3531 10.5314C15.582 10.7603 15.9527 10.7603 16.1817 10.5314C16.4106 10.3025 16.4106 9.93138 16.1817 9.70287L15.6547 9.17592L16.1817 8.64896C16.4106 8.42005 16.4106 8.04896 16.1817 7.82045C16.0672 7.70599 15.9172 7.64896 15.7672 7.64896C15.6172 7.64896 15.4672 7.70599 15.3527 7.82045L14.8258 8.3474L14.2988 7.82045C14.1844 7.70599 14.0344 7.64896 13.8844 7.64896C13.7344 7.64896 13.5844 7.70599 13.4699 7.82045C13.241 8.04935 13.241 8.42045 13.4699 8.64896L13.9969 9.17592L12.9426 10.2302L12.4156 9.70326C12.3012 9.58881 12.1512 9.53177 12.0012 9.53177C11.8512 9.53177 11.7012 9.58881 11.5867 9.70326C11.3578 9.93216 11.3578 10.3033 11.5867 10.5318L12.1137 11.0587L11.0594 12.113L10.5324 11.5861C10.418 11.4716 10.268 11.4146 10.118 11.4146C9.96798 11.4146 9.81798 11.4716 9.70353 11.5861C9.47462 11.815 9.47462 12.1857 9.70353 12.4146L10.2305 12.9415L9.17618 13.9958L8.64923 13.4689C8.53478 13.3544 8.38478 13.2974 8.23478 13.2974C8.08478 13.2974 7.93478 13.3544 7.82033 13.4689C7.59142 13.6978 7.59142 14.0685 7.82033 14.2974L8.34728 14.8244L8.34923 14.8244Z" fill="url(#paint1_linear_3332_38787)"/>
<path d="M2.14258 15.5234L8.47695 21.8578C8.94844 21.7937 9.41602 21.7086 9.87852 21.6019L2.39844 14.1223C2.2918 14.5848 2.20664 15.0519 2.14258 15.5238V15.5234Z" fill="url(#paint2_linear_3332_38787)"/>
<path d="M14.1219 2.3988L21.602 9.87888C21.7086 9.41638 21.7938 8.94919 21.8578 8.47732L15.5235 2.14294C15.0516 2.20701 14.5844 2.29216 14.1219 2.3988Z" fill="url(#paint3_linear_3332_38787)"/>
<defs>
<linearGradient id="paint0_linear_3332_38787" x1="15" y1="20.0004" x2="10.5" y2="3.50037" gradientUnits="userSpaceOnUse">
<stop stop-color="#68380C"/>
<stop offset="1" stop-color="#AE714F"/>
</linearGradient>
<linearGradient id="paint1_linear_3332_38787" x1="12.001" y1="16.3515" x2="12.001" y2="7.64896" gradientUnits="userSpaceOnUse">
<stop stop-color="#CDCDCD"/>
<stop offset="1" stop-color="white"/>
</linearGradient>
<linearGradient id="paint2_linear_3332_38787" x1="6.01055" y1="14.1223" x2="6.01055" y2="21.8578" gradientUnits="userSpaceOnUse">
<stop stop-color="#CDCDCD"/>
<stop offset="1" stop-color="white"/>
</linearGradient>
<linearGradient id="paint3_linear_3332_38787" x1="17.9899" y1="2.14294" x2="17.9899" y2="9.87888" gradientUnits="userSpaceOnUse">
<stop stop-color="#CDCDCD"/>
<stop offset="1" stop-color="white"/>
</linearGradient>
</defs>
</svg>