<?xml version="1.0" encoding="utf-8"?>
<svg xmlns="http://www.w3.org/2000/svg" width="24" height="24" viewBox="0 0 24 24" fill="none">
<path d="M10.6246 4.75365C10.6246 5.89432 11.6317 6.8188 12.8744 6.8188C14.1171 6.8188 15.1242 5.89432 15.1242 4.75365V4.06514C15.1242 2.92447 14.1171 2 12.8744 2C11.6317 2 10.6246 2.92447 10.6246 4.06514V4.75365Z" fill="url(#paint0_linear_3332_38794)"/>
<path d="M11.6273 17.767C11.1958 18.4812 10.1904 18.7974 9.31239 18.4943L5.71917 17.2046C5.15758 17.0365 4.86316 16.5146 5.06222 16.0392C5.06486 16.0329 5.06794 16.0262 5.07057 16.0199C5.27974 15.553 5.89318 15.315 6.44775 15.4853L9.22055 16.5064C9.51936 16.5912 9.84542 16.4703 9.97417 16.2271L10.7963 14.4557C10.9304 14.208 10.9998 13.939 10.9998 13.6667V10.2914C10.9998 10.1102 10.8267 9.9633 10.6127 9.9633C10.5916 9.9633 10.5705 9.96479 10.5498 9.96777L9.58264 10.1043C9.38446 10.1322 9.24384 10.2836 9.25922 10.4536L9.49343 12.5448C9.53254 12.9808 9.14672 13.3606 8.63215 13.3937C8.56931 13.3978 8.50604 13.3963 8.44364 13.3896C7.99146 13.3301 7.65003 13.0109 7.62454 12.6241L7.34199 9.97112C7.2853 9.37595 7.72253 8.82654 8.39574 8.64761C8.97403 8.49399 9.67536 8.29275 10.146 8.15549C10.5006 8.05245 10.8732 8 11.2481 8H14.0886C14.5126 8 14.9116 8.16925 15.1647 8.45716L16.5599 10.2698L18.3185 8.29535C18.6534 7.95053 19.2549 7.90068 19.6623 8.18413C19.6843 8.19938 19.7049 8.21538 19.7251 8.23174C20.0674 8.53602 20.0929 9.00695 19.7853 9.33652C19.0686 10.1396 17.4265 12.0884 17.4265 12.0884C17.1268 12.46 16.5278 12.5553 16.0893 12.3016C16.0124 12.2573 15.9438 12.2034 15.8849 12.1424C15.881 12.139 15.3001 11.4694 14.7077 10.7805C14.6479 10.7106 14.5324 10.6954 14.4502 10.7459C14.4023 10.7753 14.3742 10.8226 14.3742 10.8724V13.361C14.3742 13.6288 14.5108 13.8832 14.749 14.0592L16.6091 15.4176C16.7647 15.5307 16.8803 15.678 16.9426 15.8428L18.8177 20.7183C19.0326 21.2119 18.7338 21.7591 18.1506 21.941C17.5675 22.1229 16.9211 21.87 16.7062 21.3764C16.6966 21.354 16.6878 21.3313 16.6803 21.3087L14.9024 16.6838L13.0836 15.338L11.6269 17.767H11.6273Z" fill="url(#paint1_linear_3332_38794)"/>
<defs>
<linearGradient id="paint0_linear_3332_38794" x1="12.8744" y1="2" x2="12.8744" y2="6.8188" gradientUnits="userSpaceOnUse">
<stop stop-color="white"/>
<stop offset="1" stop-color="white"/>
</linearGradient>
<linearGradient id="paint1_linear_3332_38794" x1="12.5" y1="8" x2="12.5" y2="22" gradientUnits="userSpaceOnUse">
<stop stop-color="white"/>
<stop offset="1" stop-color="#7EC9FF"/>
</linearGradient>
</defs>
</svg>