<?xml version="1.0" encoding="utf-8"?>
<svg xmlns="http://www.w3.org/2000/svg" width="24" height="24" viewBox="0 0 24 24" fill="none">
<path d="M15.6614 6.36966H10.9585C10.4404 6.36966 9.93331 6.57986 9.56762 6.94594L2.57293 13.9406C1.80638 14.7076 1.80638 15.9555 2.57293 16.7224L7.27578 21.4252C8.04428 22.1941 9.28944 22.1938 10.0576 21.4252L17.0526 14.4306C17.4242 14.0586 17.6285 13.5648 17.6285 13.0397V8.33683C17.6285 7.25225 16.7459 6.36966 15.6614 6.36966ZM13.6942 11.6156C12.971 11.6156 12.3826 11.0272 12.3826 10.304C12.3826 9.58082 12.971 8.99242 13.6942 8.99242C14.4174 8.99242 15.0058 9.58082 15.0058 10.304C15.0058 11.0272 14.4174 11.6156 13.6942 11.6156Z" fill="url(#paint0_linear_3332_38817)"/>
<path d="M22 7.02562C22 9.57415 20.0895 11.6816 17.6285 12.0051V10.6806C19.364 10.3704 20.6884 8.84902 20.6884 7.02602C20.6884 4.97563 19.0229 3.31008 16.9725 3.31008C15.1452 3.31008 13.6238 4.63025 13.3179 6.37003C13.2784 6.58413 13.2566 6.80293 13.2566 7.02562C13.2566 7.73396 13.4488 8.41143 13.825 9.00139C14.1134 9.45616 14.5068 9.86249 14.9967 10.1903C15.0053 10.2254 15.0053 10.2645 15.0053 10.304C15.0053 10.7541 14.7736 11.1565 14.4283 11.3925C13.6457 10.8939 13.0382 10.2645 12.6271 9.54329C12.1813 8.7826 11.945 7.9215 11.945 7.02523C11.945 6.80214 11.9583 6.58374 11.9887 6.36964C12.3126 3.90394 14.424 1.99811 16.9725 1.99811C19.7441 1.99811 22 4.254 22 7.02562Z" fill="url(#paint1_linear_3332_38817)"/>
<defs>
<linearGradient id="paint0_linear_3332_38817" x1="9.81327" y1="6.36966" x2="9.81327" y2="22.0018" gradientUnits="userSpaceOnUse">
<stop stop-color="#E32AF3"/>
<stop offset="1" stop-color="#F32A2A"/>
</linearGradient>
<linearGradient id="paint1_linear_3332_38817" x1="16.9725" y1="1.99811" x2="16.9725" y2="12.0051" gradientUnits="userSpaceOnUse">
<stop offset="0.359375" stop-color="white"/>
<stop offset="1" stop-color="#CDCDCD"/>
</linearGradient>
</defs>
</svg>