<?xml version="1.0" encoding="utf-8"?>
<svg xmlns="http://www.w3.org/2000/svg" width="24" height="24" viewBox="0 0 24 24" fill="none">
<path d="M4.05945 12.8482C4.11088 12.4197 4.68745 12.2919 4.99385 12.5959C5.21773 12.818 5.49415 13.0671 5.82434 13.3212C6.15377 13.5748 6.6165 13.2976 6.60643 12.8821C6.54599 10.3874 6.94277 4.02789 12.3553 2.22435C12.7127 2.10524 13.0405 2.44188 12.9614 2.81027C11.6389 8.96931 15.0914 10.9631 16.8676 8.31945C17.0843 7.99689 17.5726 7.94101 17.768 8.27697C19.1431 10.6425 18.6751 12.7278 18.2711 13.7653C18.1394 14.1035 18.3565 14.4973 18.6975 14.3733C19.1022 14.2263 19.4461 13.9494 19.6767 13.7259C19.7898 13.6163 20 13.6887 20 13.8463C20 18.3493 16.4185 22 12 22C7.58149 22 4 18.3493 4 13.8459C4 13.5081 4.02022 13.1752 4.05945 12.8482Z" fill="url(#paint0_linear_3332_31504)"/>
<path d="M9.00019 18.1505C9.0003 18.1505 9.00038 18.1506 9.00038 18.1507C9.00048 20.2768 10.5676 22 12.5002 22C14.4328 22 16 20.2763 16 18.1505C16 17.2396 15.7123 16.4025 15.2314 15.7432C15.0464 15.4896 14.6826 15.542 14.4337 15.7332C13.3526 16.5636 12.1629 14.7994 12.6076 13.0147C12.712 12.5958 12.3945 12.1649 12.0056 12.3525C10.803 12.9327 9.00006 14.4239 9 18.1504C9 18.1505 9.00009 18.1505 9.00019 18.1505Z" fill="url(#paint1_linear_3332_31504)"/>
<defs>
<linearGradient id="paint0_linear_3332_31504" x1="12" y1="2" x2="12" y2="22" gradientUnits="userSpaceOnUse">
<stop stop-color="#FF4208"/>
<stop offset="1" stop-color="#F48605"/>
</linearGradient>
<linearGradient id="paint1_linear_3332_31504" x1="12.5" y1="12" x2="12.5" y2="22" gradientUnits="userSpaceOnUse">
<stop stop-color="#FFF5F5"/>
<stop offset="1" stop-color="#FFA34F"/>
</linearGradient>
</defs>
</svg>