<?xml version="1.0" encoding="utf-8"?>
<svg xmlns="http://www.w3.org/2000/svg" width="24" height="24" viewBox="0 0 24 24" fill="none">
<path d="M11.9398 22H11.8582C11.0358 22 10.3698 21.3157 10.3698 20.4719V12.2332C10.3698 11.3894 11.0363 10.7051 11.8582 10.7051H11.9398C12.7617 10.7051 13.4282 11.3894 13.4282 12.2332V20.4719C13.4282 21.3162 12.7617 22 11.9398 22Z" fill="url(#paint0_linear_3332_34192)"/>
<path fill-rule="evenodd" clip-rule="evenodd" d="M12.7309 5.52658C12.7309 5.11361 13.0657 4.77883 13.4786 4.77883C14.2568 4.77883 14.94 4.49765 15.3866 4.05003C15.6538 3.78219 15.9869 3.553 16.3652 3.553H17.2238C17.6527 3.553 18.0003 3.20535 18.0003 2.7765C18.0003 2.34765 17.6527 2 17.2238 2H15.197C14.7681 2 14.4205 2.34765 14.4205 2.7765C14.4205 2.93076 14.0539 3.22583 13.4791 3.22583H10.3193C9.74452 3.22583 9.37797 2.93076 9.37797 2.7765C9.37797 2.34765 9.03032 2 8.60147 2H6.77632C6.34747 2 5.99982 2.34765 5.99982 2.7765C5.99982 3.20535 6.34747 3.553 6.77632 3.553H7.43293C7.81115 3.553 8.14423 3.78206 8.41133 4.04983C8.85774 4.49737 9.54069 4.77883 10.3188 4.77883C10.732 4.77883 11.067 5.11381 11.067 5.52704V7.54985C11.067 8.02477 10.7263 8.42225 10.2892 8.60786C8.84032 9.22304 7.82349 10.6421 7.82349 12.2907V15.2188C7.82349 15.6667 7.46039 16.0298 7.01249 16.0298C6.56458 16.0298 6.20148 16.3929 6.20148 16.8408V16.8839C6.20148 17.3557 6.58389 17.7381 7.05563 17.7381H8.48736C9.03964 17.7381 9.48736 17.2903 9.48736 16.7381V12.2907C9.48736 11.0219 10.5694 9.98965 11.899 9.98965C13.2285 9.98965 14.3106 11.0219 14.3106 12.2907V16.7381C14.3106 17.2903 14.7583 17.7381 15.3106 17.7381H16.8093C17.2811 17.7381 17.6635 17.3508 17.6635 16.8791C17.6635 16.4127 17.2854 16.0298 16.819 16.0298C16.3525 16.0298 15.9744 15.6517 15.9744 15.1852V12.2907C15.9744 10.6421 14.9576 9.22304 13.5087 8.60786C13.0716 8.42225 12.7309 8.02477 12.7309 7.54985V5.52658Z" fill="url(#paint1_linear_3332_34192)"/>
<defs>
<linearGradient id="paint0_linear_3332_34192" x1="11.899" y1="10.7051" x2="11.899" y2="22" gradientUnits="userSpaceOnUse">
<stop stop-color="white"/>
<stop offset="1" stop-color="#CACFDE"/>
</linearGradient>
<linearGradient id="paint1_linear_3332_34192" x1="12.0001" y1="2" x2="12.0001" y2="17.7381" gradientUnits="userSpaceOnUse">
<stop stop-color="#FF3F90"/>
<stop offset="1" stop-color="#F14A4A"/>
</linearGradient>
</defs>
</svg>