<?xml version="1.0" encoding="utf-8"?>
<svg xmlns="http://www.w3.org/2000/svg" width="24" height="24" viewBox="0 0 24 24" fill="none">
<path fill-rule="evenodd" clip-rule="evenodd" d="M5.92467 15.6355L4.72269 14.4325C3.49069 13.2015 2.87569 12.5865 3.02069 11.9245C3.16665 11.2627 3.9832 10.9617 5.61521 10.36L5.61669 10.3595L11.0667 8.3535C14.3267 7.1515 15.9567 6.5515 16.7967 7.3915C17.6355 8.23027 17.0365 9.85574 15.839 13.1052L15.8337 13.1195L13.8267 18.5695L13.8261 18.571C13.2245 20.203 12.9235 21.0195 12.2617 21.1655C11.5997 21.3105 10.9837 20.6955 9.75369 19.4635L8.55069 18.2615L8.55043 18.2612L6.61266 20.1995L6.60807 20.2041C6.20313 20.608 5.9998 20.8109 5.77266 20.9055C5.46976 21.0307 5.12956 21.0307 4.82665 20.9055C4.59951 20.8109 4.39619 20.608 3.99124 20.2041L3.98665 20.1995C3.57865 19.7915 3.37466 19.5875 3.28066 19.3595C3.15466 19.0565 3.15466 18.7155 3.28066 18.4135C3.37466 18.1855 3.57866 17.9815 3.98665 17.5735L5.92467 15.6355Z" fill="url(#paint0_linear_3332_36271)"/>
<path fill-rule="evenodd" clip-rule="evenodd" d="M13.9998 5C14.5521 5 14.9998 4.55228 14.9998 4L14.9998 3C14.9998 2.44772 14.5521 2 13.9998 2C13.4475 2 12.9998 2.44772 12.9998 3V4C12.9998 4.55228 13.4475 5 13.9998 5ZM20.1693 2.63389C20.5194 2.2838 21.087 2.2838 21.437 2.63389C21.7871 2.98397 21.7871 3.55158 21.437 3.90166L19.4606 5.87816C19.1105 6.22825 18.5429 6.22825 18.1928 5.87816C17.8427 5.52807 17.8427 4.96047 18.1928 4.61038L20.1693 2.63389ZM20.9998 9C21.5521 9 21.9998 9.44772 21.9998 10C21.9998 10.5523 21.5521 11 20.9998 11H19.9998C19.4475 11 18.9998 10.5523 18.9998 10C18.9998 9.44772 19.4475 9 19.9998 9H20.9998Z" fill="url(#paint1_linear_3332_36271)"/>
<defs>
<linearGradient id="paint0_linear_3332_36271" x1="17.1877" y1="14.0932" x2="2.99982" y2="14.0932" gradientUnits="userSpaceOnUse">
<stop stop-color="#FFD873"/>
<stop offset="1" stop-color="#E45E12"/>
</linearGradient>
<linearGradient id="paint1_linear_3332_36271" x1="17.4998" y1="2" x2="17.4998" y2="11" gradientUnits="userSpaceOnUse">
<stop stop-color="white"/>
<stop offset="1" stop-color="#FAE0CD"/>
</linearGradient>
</defs>
</svg>