<?xml version="1.0" encoding="utf-8"?>
<svg xmlns="http://www.w3.org/2000/svg" width="24" height="24" viewBox="0 0 24 24" fill="none">
<path d="M8.10302 13.9352C7.79181 13.9352 7.52336 13.7219 7.45984 13.4243C6.9401 10.9996 5.00219 9.10472 2.52296 8.59652C2.21855 8.53402 2.00043 8.27152 2.00043 7.96762C2.00043 7.66371 2.21855 7.40082 2.52296 7.33871C5.00258 6.83051 6.9405 4.93558 7.46024 2.51136C7.52416 2.21371 7.79261 2.00043 8.10382 2.00043C8.41502 2.00043 8.68347 2.21371 8.74699 2.51136C9.26673 4.93597 11.2046 6.8309 13.6839 7.3391C13.9883 7.4016 14.2064 7.6641 14.2064 7.96801C14.2064 8.27191 13.9883 8.5348 13.6839 8.59691C11.2042 9.10511 9.26633 11 8.74659 13.4243C8.68267 13.7219 8.41422 13.9352 8.10342 13.9352H8.10302Z" fill="url(#paint0_linear_3332_31495)"/>
<path d="M10.4919 22C10.1807 22 9.91227 21.7867 9.84875 21.4891C9.60387 20.3469 8.69064 19.4539 7.52253 19.2144C7.21812 19.1519 7 18.8894 7 18.5855C7 18.2816 7.21812 18.0187 7.52253 17.9566C8.69064 17.7172 9.60387 16.8246 9.84875 15.682C9.91267 15.3844 10.1811 15.1711 10.4919 15.1711C10.8031 15.1711 11.0716 15.3844 11.1351 15.682C11.38 16.8242 12.2932 17.7172 13.4613 17.9566C13.7657 18.0191 13.9839 18.2816 13.9839 18.5855C13.9839 18.8894 13.7657 19.1523 13.4613 19.2144C12.2932 19.4539 11.38 20.3469 11.1351 21.4891C11.0712 21.7867 10.8027 22 10.4919 22Z" fill="url(#paint1_linear_3332_31495)"/>
<path d="M18 17.9996C17.7112 17.9996 17.462 17.7972 17.403 17.5147C17.0957 16.049 15.9503 14.9037 14.485 14.5967C14.2024 14.5374 14 14.2883 14 13.9998C14 13.7114 14.2024 13.4618 14.485 13.4029C15.9507 13.0955 17.096 11.9502 17.403 10.485C17.4624 10.2024 17.7115 10 18 10C18.2888 10 18.538 10.2024 18.597 10.485C18.9043 11.9506 20.0497 13.0959 21.515 13.4033C21.7976 13.4626 22 13.7117 22 14.0002C22 14.2886 21.7976 14.5382 21.515 14.5971C20.0497 14.9041 18.904 16.0498 18.5966 17.515C18.5373 17.7976 18.2881 18 17.9996 18L18 17.9996Z" fill="url(#paint2_linear_3332_31495)"/>
<defs>
<linearGradient id="paint0_linear_3332_31495" x1="8.10342" y1="2.00043" x2="8.10342" y2="13.9352" gradientUnits="userSpaceOnUse">
<stop stop-color="#FFB31F"/>
<stop offset="1" stop-color="#FFDE9E"/>
</linearGradient>
<linearGradient id="paint1_linear_3332_31495" x1="10.4919" y1="15.1711" x2="10.4919" y2="22" gradientUnits="userSpaceOnUse">
<stop stop-color="#FFB31F"/>
<stop offset="1" stop-color="#FFDE9E"/>
</linearGradient>
<linearGradient id="paint2_linear_3332_31495" x1="18" y1="10" x2="18" y2="18" gradientUnits="userSpaceOnUse">
<stop stop-color="#FFB31F"/>
<stop offset="1" stop-color="#FFDE9E"/>
</linearGradient>
</defs>
</svg>