<?xml version="1.0" encoding="utf-8"?>
<svg xmlns="http://www.w3.org/2000/svg" width="24" height="24" viewBox="0 0 24 24" fill="none">
<path d="M11.9998 14.4996C13.3804 14.4996 14.4996 13.3804 14.4996 11.9998C14.4996 10.6191 13.3804 9.49994 11.9998 9.49994C10.6191 9.49994 9.49994 10.6191 9.49994 11.9998C9.49994 13.3804 10.6191 14.4996 11.9998 14.4996Z" fill="url(#paint0_linear_3332_38757)"/>
<path fill-rule="evenodd" clip-rule="evenodd" d="M11.9998 7.00012C11.4476 7.00012 10.9999 6.55246 10.9999 6.00028V5.57657C8.21076 6.00718 6.00671 8.21099 5.57609 11.0004H5.99981C6.552 11.0004 6.99965 11.4481 6.99965 12.0003C6.99965 12.5524 6.552 13.0001 5.99981 13.0001H5.57608C6.00667 15.7896 8.21048 17.9934 10.9999 18.4239V18.0002C10.9999 17.448 11.4476 17.0004 11.9998 17.0004C12.552 17.0004 12.9996 17.448 12.9996 18.0002V18.4239C15.7891 17.9934 17.9929 15.7896 18.4235 13.0001H17.9997C17.4475 13.0001 16.9999 12.5524 16.9999 12.0003C16.9999 11.4481 17.4475 11.0004 17.9997 11.0004H18.422C17.9879 8.21377 15.7865 6.01215 12.9996 5.57803V5.99981C12.9996 6.552 12.552 6.99965 11.9998 6.99965V7.00012ZM3.55819 13.0001C4.01463 16.8951 7.10463 19.9854 10.9999 20.4418V21.0002C10.9999 21.5524 11.4476 22 11.9998 22C12.552 22 12.9996 21.5524 12.9996 21.0002V20.4403C16.8923 19.9803 19.9796 16.8928 20.4402 13.0001H20.9997C21.5519 13.0001 21.9995 12.5524 21.9995 12.0003C21.9995 11.4481 21.5519 11.0004 20.9997 11.0004H20.4414C19.9851 7.10522 16.8948 4.01469 12.9996 3.55819V2.99984C12.9996 2.44765 12.552 2 11.9998 2C11.4476 2 10.9999 2.44765 10.9999 2.99984V3.5582C7.10495 4.01473 4.01466 7.10538 3.55819 11.0004H2.99984C2.44765 11.0004 2 11.4481 2 12.0003C2 12.5524 2.44765 13.0001 2.99984 13.0001H3.55819Z" fill="url(#paint1_linear_3332_38757)"/>
<defs>
<linearGradient id="paint0_linear_3332_38757" x1="11.9998" y1="9.49994" x2="11.9998" y2="14.4996" gradientUnits="userSpaceOnUse">
<stop stop-color="white"/>
<stop offset="1" stop-color="#CAB6EB"/>
</linearGradient>
<linearGradient id="paint1_linear_3332_38757" x1="11.9998" y1="2" x2="11.9998" y2="22" gradientUnits="userSpaceOnUse">
<stop stop-color="#FF5F72"/>
<stop offset="1" stop-color="#FF1D38"/>
</linearGradient>
</defs>
</svg>