<?xml version="1.0" encoding="utf-8"?>
<svg xmlns="http://www.w3.org/2000/svg" width="24" height="24" viewBox="0 0 24 24" fill="none">
<path d="M11.9504 21.9506C6.42759 21.9506 1.95044 17.4735 1.95044 11.9506C1.95044 6.42777 6.42759 1.95062 11.9504 1.95062C17.4733 1.95062 21.9504 6.42778 21.9504 11.9506C21.9504 17.4735 17.4733 21.9506 11.9504 21.9506Z" fill="url(#paint0_linear_3332_38927)"/>
<path fill-rule="evenodd" clip-rule="evenodd" d="M4.06189 11C4.51313 7.38136 7.38118 4.51326 10.9998 4.06194V5.00002C10.9998 5.5523 11.4475 6.00002 11.9998 6.00002C12.5521 6.00002 12.9998 5.5523 12.9998 5.00002V4.06189C16.6186 4.51306 19.4868 7.38124 19.9381 11H18.9998C18.4475 11 17.9998 11.4477 17.9998 12C17.9998 12.5523 18.4475 13 18.9998 13H19.9381C19.4868 16.6188 16.6186 19.487 12.9998 19.9381V19C12.9998 18.4477 12.5521 18 11.9998 18C11.4475 18 10.9998 18.4477 10.9998 19V19.9381C7.38118 19.4868 4.51313 16.6187 4.06189 13H4.99981C5.5521 13 5.99981 12.5523 5.99981 12C5.99981 11.4477 5.5521 11 4.99981 11H4.06189Z" fill="url(#paint1_linear_3332_38927)"/>
<path d="M13.6703 14.1286L16.4959 8.30004C16.7028 7.87322 16.2547 7.42509 15.8279 7.63201L9.99935 10.4576C9.89115 10.5101 9.80549 10.5998 9.75804 10.7102L7.49754 15.9736C7.31928 16.3887 7.73921 16.8086 8.15428 16.6304L13.4177 14.3699C13.5282 14.3224 13.6178 14.2368 13.6703 14.1286Z" fill="url(#paint2_linear_3332_38927)"/>
<defs>
<linearGradient id="paint0_linear_3332_38927" x1="17.7902" y1="3.79035" x2="6.29016" y2="20.7903" gradientUnits="userSpaceOnUse">
<stop stop-color="#F3AB69"/>
<stop offset="0.979167" stop-color="#FF5454"/>
</linearGradient>
<linearGradient id="paint1_linear_3332_38927" x1="17.2556" y1="4.65575" x2="6.90557" y2="19.9557" gradientUnits="userSpaceOnUse">
<stop stop-color="#4F2924"/>
<stop offset="1" stop-color="#6A1136"/>
</linearGradient>
<linearGradient id="paint2_linear_3332_38927" x1="17.8316" y1="12.0641" x2="6.29607" y2="12.0641" gradientUnits="userSpaceOnUse">
<stop stop-color="white"/>
<stop offset="1" stop-color="#ECF7FF" stop-opacity="0.84"/>
</linearGradient>
</defs>
</svg>