<?xml version="1.0" encoding="utf-8"?>
<svg xmlns="http://www.w3.org/2000/svg" width="24" height="24" viewBox="0 0 24 24" fill="none">
<path fill-rule="evenodd" clip-rule="evenodd" d="M11.3683 17.4839V12.4244C11.3683 12.0795 11.6514 11.8 11.9998 11.8C12.3483 11.8 12.6314 12.0795 12.6314 12.4244V17.4829C13.8735 15.6175 15.8297 14.2939 18.289 13.7138C18.7694 13.5995 19.2598 13.7338 19.5991 14.0702L19.5995 14.0707C19.9401 14.4067 20.0747 14.8907 19.9602 15.3653C19.1527 18.7164 16.6448 21.1195 13.0799 21.9604C13.0368 21.9702 12.9933 21.976 12.9493 21.9778L12.0159 22.0004H11.9998C11.9889 22.0004 11.978 22.0002 11.9672 21.9996L11.0503 21.9782C11.0063 21.9769 10.9628 21.9711 10.9197 21.9609C7.35607 21.12 4.84693 18.716 4.03944 15.3658C3.92489 14.8902 4.05991 14.4067 4.40006 14.0702C4.73935 13.732 5.2289 13.5987 5.7106 13.7138C8.1693 14.2939 10.1261 15.6182 11.3683 17.4839Z" fill="url(#paint0_linear_3332_34182)"/>
<path d="M17.1283 2.62222C16.671 2.50044 16.2019 2.68978 15.9628 3.09511L14.4719 5.62222L12.9271 2.56622C12.7503 2.21733 12.3949 2 11.9998 2C11.6048 2 11.2494 2.21733 11.0726 2.56711L9.52726 5.62222L8.03684 3.09511C7.79773 2.68978 7.32953 2.50044 6.87134 2.62222C6.41315 2.74444 6.10522 3.14267 6.10522 3.61156V7.02933C6.10522 10.2427 8.74939 12.8578 12.0003 12.8578C15.2511 12.8578 17.8953 10.2427 17.8953 7.02933V3.61111C17.8953 3.14222 17.5874 2.744 17.1292 2.62178L17.1283 2.62222Z" fill="url(#paint1_linear_3332_34182)"/>
<defs>
<linearGradient id="paint0_linear_3332_34182" x1="11.9998" y1="13.6732" x2="11.9998" y2="22.0004" gradientUnits="userSpaceOnUse">
<stop stop-color="#17A00C"/>
<stop offset="1" stop-color="#B8EB76"/>
</linearGradient>
<linearGradient id="paint1_linear_3332_34182" x1="12.0003" y1="2" x2="12.0003" y2="12.8578" gradientUnits="userSpaceOnUse">
<stop stop-color="white"/>
<stop offset="1" stop-color="#95D2DF"/>
</linearGradient>
</defs>
</svg>