<?xml version="1.0" encoding="utf-8"?>
<svg xmlns="http://www.w3.org/2000/svg" width="24" height="24" viewBox="0 0 24 24" fill="none">
<g clip-path="url(#clip0_3332_34208)">
<path d="M21.9998 13.088V15.2C21.9998 15.5312 21.7373 15.8 21.4139 15.8H18.8608C18.7658 16.4776 18.1951 17 17.5076 17C16.8201 17 16.2498 16.4776 16.1545 15.8H7.84474C7.74982 16.4776 7.17911 17 6.49161 17C5.80411 17 5.2338 16.4776 5.13849 15.8H2.58575C2.26232 15.8 1.99982 15.5312 1.99982 15.2V12C1.99982 10.7868 2.96349 9.8 4.14825 9.8H4.50724L5.5799 6.5044C5.87286 5.6044 6.692 5 7.61818 5H14.5127C15.3826 5 16.1611 5.5316 16.4959 6.354L17.9416 9.9072L20.1901 10.598C21.2725 10.9304 21.9994 11.9312 21.9994 13.0884L21.9998 13.088Z" fill="url(#paint0_linear_3332_34208)"/>
<path d="M15.4143 6.81519L16.0685 8.42311C16.3361 9.08075 15.8522 9.79998 15.1422 9.79998H12.8045C12.2522 9.79998 11.8045 9.35227 11.8045 8.79998V7.19999C11.8045 6.6477 12.2522 6.19998 12.8045 6.19998H14.5127C14.908 6.19998 15.2619 6.44159 15.4143 6.81519ZM6.69161 6.88358C6.82482 6.47478 7.19708 6.19958 7.61817 6.19958H9.63263C10.1849 6.19958 10.6326 6.6473 10.6326 7.19958V8.79958C10.6326 9.35187 10.1849 9.79958 9.63263 9.79958H7.11956C6.43997 9.79958 5.95832 9.13627 6.16867 8.49005L6.69161 6.88358Z" fill="url(#paint1_linear_3332_34208)"/>
</g>
<circle cx="6.49982" cy="16.5" r="2.5" fill="url(#paint2_linear_3332_34208)"/>
<circle cx="16.5" cy="16.5" r="2.5" fill="url(#paint3_linear_3332_34208)"/>
<defs>
<linearGradient id="paint0_linear_3332_34208" x1="11.9998" y1="5" x2="11.9998" y2="17" gradientUnits="userSpaceOnUse">
<stop stop-color="#FFDA1A"/>
<stop offset="1" stop-color="#FF7F57"/>
</linearGradient>
<linearGradient id="paint1_linear_3332_34208" x1="11.1856" y1="6.19958" x2="11.1856" y2="13.3996" gradientUnits="userSpaceOnUse">
<stop stop-color="#8A380A"/>
<stop offset="1" stop-color="#D28B00"/>
</linearGradient>
<linearGradient id="paint2_linear_3332_34208" x1="6.49982" y1="14" x2="6.49982" y2="19" gradientUnits="userSpaceOnUse">
<stop stop-color="white"/>
<stop offset="1" stop-color="#DADCCB"/>
</linearGradient>
<linearGradient id="paint3_linear_3332_34208" x1="16.5" y1="14" x2="16.5" y2="19" gradientUnits="userSpaceOnUse">
<stop stop-color="white"/>
<stop offset="1" stop-color="#DADCCB"/>
</linearGradient>
<clipPath id="clip0_3332_34208">
<rect width="20" height="12" fill="white" transform="translate(1.99982 5)"/>
</clipPath>
</defs>
</svg>