<?xml version="1.0" encoding="utf-8"?>
<svg xmlns="http://www.w3.org/2000/svg" width="24" height="24" viewBox="0 0 24 24" fill="none">
<path d="M2.35123 6.19862C2.15715 5.11124 2.88132 4.0724 3.9687 3.87832L12.5239 2.35137C13.6113 2.15729 14.6502 2.88145 14.8442 3.96884L17.182 17.067C17.3761 18.1544 16.6519 19.1932 15.5645 19.3873L7.00932 20.9142C5.92193 21.1083 4.8831 20.3841 4.68902 19.2968L2.35123 6.19862Z" fill="url(#paint0_linear_3332_34226)"/>
<path d="M8.96106 3.93185C9.24694 2.86492 10.3436 2.23175 11.4106 2.51764L19.8049 4.76689C20.8718 5.05277 21.505 6.14944 21.2191 7.21638L17.7755 20.0681C17.4896 21.1351 16.3929 21.7682 15.326 21.4824L6.93165 19.2331C5.86472 18.9472 5.23156 17.8506 5.51744 16.7836L8.96106 3.93185Z" fill="url(#paint1_linear_3332_34226)"/>
<path fill-rule="evenodd" clip-rule="evenodd" d="M11.2479 8.82663C11.7133 8.54603 12.2573 8.4446 12.7818 8.5406C13.3063 8.6366 13.7768 8.92373 14.1085 9.35024C14.6366 9.13761 15.2191 9.13668 15.7401 9.34763C16.2611 9.55857 16.6824 9.96595 16.9204 10.4888C17.1584 11.0116 17.1956 11.6116 17.0246 12.1696C16.8536 12.7275 16.4869 13.2025 15.9975 13.5001L13.3942 15.07C13.1354 15.226 12.8291 15.2706 12.5427 15.1939C12.2563 15.1171 12.0134 14.9254 11.8672 14.6608L10.3975 12C10.1053 11.4707 10.0307 10.8391 10.1901 10.244C10.3495 9.64897 10.7301 9.13888 11.2479 8.82663Z" fill="url(#paint2_linear_3332_34226)"/>
<defs>
<linearGradient id="paint0_linear_3332_34226" x1="8.24632" y1="3.11484" x2="11.2869" y2="20.1508" gradientUnits="userSpaceOnUse">
<stop stop-color="#FF7966"/>
<stop offset="1" stop-color="#F62C2C"/>
</linearGradient>
<linearGradient id="paint1_linear_3332_34226" x1="15.6077" y1="3.64226" x2="11.1288" y2="20.3577" gradientUnits="userSpaceOnUse">
<stop stop-color="white"/>
<stop offset="1" stop-color="#D9D9D9"/>
</linearGradient>
<linearGradient id="paint2_linear_3332_34226" x1="14.2211" y1="8.919" x2="12.54" y2="15.1931" gradientUnits="userSpaceOnUse">
<stop stop-color="#FF7966"/>
<stop offset="1" stop-color="#F62C2C"/>
</linearGradient>
</defs>
</svg>