<?xml version="1.0" encoding="utf-8"?>
<svg xmlns="http://www.w3.org/2000/svg" width="24" height="24" viewBox="0 0 24 24" fill="none">
<path fill-rule="evenodd" clip-rule="evenodd" d="M6.61787 2H6.86705C6.88941 2 6.91158 2.00073 6.93355 2.00216C6.95546 2.00073 6.97756 2 6.99983 2H9.33317C9.97347 2 10.5693 2.16546 11.0753 2.45004C11.6222 2.75762 12.3776 2.75774 12.9244 2.45015C13.4304 2.16557 14.0262 2 14.6665 2H16.9998C17.0221 2 17.0442 2.00073 17.0661 2.00216C17.0881 2.00073 17.1103 2 17.1326 2H17.3818C17.7606 2 18.1068 2.214 18.2762 2.55279L19.2762 4.55279C19.6087 5.21769 19.1252 6 18.3818 6H17.3826C16.9671 6 16.6051 5.74505 16.4556 5.37535C16.4546 5.37804 16.4536 5.38073 16.4525 5.38341C15.9522 6.70465 15.3832 8.4057 15.2132 9.80265C15.1707 10.1518 14.9777 10.4709 14.6692 10.6398L14.2354 10.8772C14.0882 10.9578 13.9231 11 13.7553 11H10.2006C10.026 11 9.85451 10.9543 9.70308 10.8675L9.31144 10.6428C9.01271 10.4715 8.82724 10.1587 8.78515 9.81693C8.609 8.38667 8.00345 6.60164 7.54266 5.37891C7.39222 5.74669 7.03125 6 6.61705 6H5.61787C4.87449 6 4.39099 5.21769 4.72344 4.55279L5.72344 2.55279C5.89283 2.214 6.2391 2 6.61787 2Z" fill="url(#paint0_linear_3332_36361)"/>
<path fill-rule="evenodd" clip-rule="evenodd" d="M16.6252 21.2957C16.6252 21.2957 16.6251 21.2957 16.6251 21.2957L16.6251 21.2957C16.6251 21.2957 16.6251 21.2957 16.6251 21.2957C15.3128 21.6918 13.7396 22 11.9996 22C10.2598 22 8.6863 21.6918 7.37445 21.2958C7.37435 21.2958 7.37424 21.2958 7.37422 21.2959C7.37419 21.296 7.37408 21.2961 7.37398 21.296C5.8096 20.8235 4.75967 20.3194 3.83143 19.7661C3.36276 19.4867 3.23376 18.8726 3.52557 18.4115L8.77276 10.1215C8.95612 9.83186 9.2751 9.6563 9.61795 9.65637L10.8531 9.65664C10.8532 9.65664 10.8534 9.65657 10.8535 9.65645C10.8537 9.65632 10.8538 9.65625 10.854 9.65625H11.9995C11.9996 9.65625 11.9997 9.65616 11.9997 9.65605C11.9997 9.65594 11.9998 9.65585 11.9999 9.65585H13.1453C13.1455 9.65585 13.1457 9.65592 13.1458 9.65605C13.146 9.65618 13.1461 9.65625 13.1463 9.65625H14.3789C14.7231 9.65625 15.0412 9.83002 15.2248 10.1211C16.2871 11.8046 19.2618 16.4992 20.4749 18.4134C20.767 18.8744 20.6364 19.486 20.1665 19.7638C19.1937 20.3388 18.1145 20.8459 16.6252 21.2957C16.6252 21.2957 16.6252 21.2957 16.6252 21.2957Z" fill="url(#paint1_linear_3332_36361)"/>
<defs>
<linearGradient id="paint0_linear_3332_36361" x1="11.9998" y1="2" x2="11.9998" y2="5" gradientUnits="userSpaceOnUse">
<stop stop-color="white"/>
<stop offset="1" stop-color="#FCE0FE"/>
</linearGradient>
<linearGradient id="paint1_linear_3332_36361" x1="12.0001" y1="9.65585" x2="12.0001" y2="22" gradientUnits="userSpaceOnUse">
<stop stop-color="#FF899F"/>
<stop offset="1" stop-color="#C13DAC"/>
</linearGradient>
</defs>
</svg>