<?xml version="1.0" encoding="utf-8"?>
<svg xmlns="http://www.w3.org/2000/svg" width="24" height="24" viewBox="0 0 24 24" fill="none">
<path d="M2 6C2 3.79086 3.79086 2 6 2H18C20.2091 2 22 3.79086 22 6V18C22 20.2091 20.2091 22 18 22H6C3.79086 22 2 20.2091 2 18V6Z" fill="url(#paint0_linear_3332_36505)"/>
<path d="M16.5832 5.33319C12.6664 5.33319 11.5707 8.38241 10.7742 10.609C10.616 11.0523 10.4785 11.4973 10.3449 11.9297C9.675 14.1031 9.2082 15.3332 7.4168 15.3332C7.18672 15.3332 7 15.5199 7 15.75V18.25C7 18.4801 7.18672 18.6668 7.4168 18.6668C9.986 18.6668 11.9934 16.6399 12.905 14.3717C13.0702 13.9607 13.4546 13.6668 13.8976 13.6668H15.75C15.9801 13.6668 16.1668 13.4801 16.1668 13.25V10.75C16.1668 10.5199 15.9801 10.3332 15.75 10.3332H14.196C14.1532 10.3332 14.1245 10.2892 14.1418 10.25C14.6137 9.19569 14.85 8.66678 16.5836 8.66678C16.8137 8.66678 17.0004 8.48007 17.0004 8.24999V5.74999C17.0004 5.51991 16.8137 5.33319 16.5836 5.33319H16.5832Z" fill="url(#paint1_linear_3332_36505)"/>
<defs>
<linearGradient id="paint0_linear_3332_36505" x1="12" y1="2" x2="12" y2="22" gradientUnits="userSpaceOnUse">
<stop stop-color="#FF6A60"/>
<stop offset="1" stop-color="#F70059"/>
</linearGradient>
<linearGradient id="paint1_linear_3332_36505" x1="12.0002" y1="5.33319" x2="12.0002" y2="18.6668" gradientUnits="userSpaceOnUse">
<stop stop-color="white"/>
<stop offset="1" stop-color="#DEDEDE"/>
</linearGradient>
</defs>
</svg>