<?xml version="1.0" encoding="utf-8"?>
<svg xmlns="http://www.w3.org/2000/svg" width="24" height="24" viewBox="0 0 24 24" fill="none">
<path d="M10.8511 12.6402L9.60532 10.3403C9.4738 10.0975 9.17034 10.0073 8.92753 10.1388C8.68472 10.2704 8.5945 10.5738 8.72603 10.8166L9.97179 13.1165C10.1033 13.3593 10.4068 13.4496 10.6496 13.318C10.8924 13.1865 10.9826 12.8831 10.8511 12.6402Z" fill="white"/>
<path fill-rule="evenodd" clip-rule="evenodd" d="M19.5104 6H5H3C2.44772 6 2 6.44772 2 7V8C2 8.55228 2.44772 9 3 9H3.1901C3.42844 9 3.63365 9.16823 3.68039 9.40194L3.91709 10.5855C3.93279 10.6639 3.92942 10.745 3.90726 10.8219L2.04938 17.2715C2.0166 17.4293 2 17.5911 2 17.7533C2 19.0884 3.11701 20.1749 4.48963 20.1749H8.55394C8.83008 20.1749 9.05394 19.951 9.05394 19.6749V19.4641C9.05394 19.188 8.83008 18.9641 8.55394 18.9641H8.43547C8.12041 18.9641 7.88387 18.6762 7.94497 18.3672L8.35358 16.2999C8.39988 16.0657 8.60533 15.8969 8.84409 15.8969H11.5436C13.2597 15.8969 14.6556 14.5392 14.6556 12.87V11.5C14.6556 11.2239 14.8795 11 15.1556 11H21C21.5523 11 22 10.5523 22 10V7C22 6.44772 21.5523 6 21 6H20.7552V5.62241C20.7552 5.27866 20.4765 5 20.1328 5C19.789 5 19.5104 5.27866 19.5104 5.62241V6ZM9.3215 11.403C9.3678 11.1688 9.57325 11 9.81201 11H12.9108C13.1869 11 13.4108 11.2239 13.4108 11.5V12.87C13.4108 13.8713 12.573 14.6861 11.5436 14.6861H9.28107C8.96601 14.6861 8.72947 14.3982 8.79056 14.0891L9.3215 11.403Z" fill="url(#paint0_linear_3332_36536)"/>
<path d="M5 11H7.26301C7.89966 11 8.37421 11.587 8.24081 12.2095L6.82581 18.8129H4.14209C3.48057 18.8129 3.00135 18.1821 3.1787 17.5448L5 11Z" fill="url(#paint1_linear_3332_36536)"/>
<defs>
<linearGradient id="paint0_linear_3332_36536" x1="12" y1="6.21075" x2="12" y2="20.1749" gradientUnits="userSpaceOnUse">
<stop stop-color="#FFDF8E"/>
<stop offset="1" stop-color="#FF800B"/>
</linearGradient>
<linearGradient id="paint1_linear_3332_36536" x1="5.6629" y1="11" x2="5.6629" y2="18.8129" gradientUnits="userSpaceOnUse">
<stop stop-color="#693F00"/>
<stop offset="1" stop-color="#7E4C00"/>
</linearGradient>
</defs>
</svg>