<?xml version="1.0" encoding="utf-8"?>
<svg xmlns="http://www.w3.org/2000/svg" width="24" height="24" viewBox="0 0 24 24" fill="none">
<path fill-rule="evenodd" clip-rule="evenodd" d="M6.15569 22H12H17.8443C19.0328 22 20 21.0966 20 19.9866V4.01342C20 2.90336 19.0328 2 17.8443 2H12H6.15569C4.96719 2 4 2.90336 4 4.01342V19.9866C4 21.0966 4.96719 22 6.15569 22Z" fill="url(#paint0_linear_3332_36590)"/>
<path fill-rule="evenodd" clip-rule="evenodd" d="M10.8294 4.90826H12.2665C12.6384 4.90826 12.9402 5.20894 12.9402 5.57941V7.7718H15.8594C16.0574 7.7718 16.2456 7.8586 16.3736 8.00894C16.5011 8.15972 16.5564 8.35882 16.524 8.55345L15.8055 12.8488C15.7511 13.1722 15.47 13.4094 15.1408 13.4094H12.9402V18.4653C12.9402 18.8358 12.6384 19.1365 12.2665 19.1365C11.8947 19.1365 11.5929 18.8358 11.5929 18.4653V13.4094H9.39229C9.06309 13.4094 8.78196 13.1722 8.72762 12.8488L8.00905 8.55345C7.97672 8.35882 8.03196 8.15972 8.1595 8.00894C8.2875 7.8586 8.47567 7.7718 8.67372 7.7718H11.5929V6.25055H10.8294C10.4576 6.25055 10.1558 5.94987 10.1558 5.57941C10.1558 5.20894 10.4576 4.90826 10.8294 4.90826ZM9.96309 12.0671H11.5929V9.11408H9.46908L9.96309 12.0671ZM12.9402 12.0671H14.57L15.064 9.11408H12.9402V12.0671Z" fill="#FF3939"/>
<defs>
<linearGradient id="paint0_linear_3332_36590" x1="12" y1="2" x2="12" y2="22" gradientUnits="userSpaceOnUse">
<stop stop-color="#B8DCE2"/>
<stop offset="1" stop-color="white"/>
</linearGradient>
</defs>
</svg>